# xmcd
#
# Track frame offsets: 
#        150
#        16784
#        37839
#        60226
#        82426
#        104376
#        124798
#        144650
#        165009
#        183760
#        201062
#        220582
#        248106
#        271853
#
# Disc length: 3896 seconds
#
# Revision: 5
# Processed by: cddbd v1.5.2PL0 Copyright (c) Steve Scherf et al.
# Submitted via: ExactAudioCopy v1.1
#
DISCID=ae0f360e
DTITLE=Chris Rea - CD02. Country Blues
DYEAR=2005
DGENRE=Blues
TTITLE0=Walkin' Country Blues
TTITLE1=Man Gone Missing
TTITLE2=Can't Stay Blues
TTITLE3=KKK Blues
TTITLE4=Too Much Drinkin'
TTITLE5=Catwalk Woman
TTITLE6=If You've Got A Friend In Jesus
TTITLE7=Head Out On The Highway
TTITLE8=Wild Pony
TTITLE9=Steam Train Blues
TTITLE10=Going Up To Memphis
TTITLE11=Somewhere Between Highway 61 And 49
TTITLE12=Ticket For Chicago
TTITLE13=Dance All Night Long
EXTD=YEAR: 2005
EXTT0=
EXTT1=
EXTT2=
EXTT3=
EXTT4=
EXTT5=
EXTT6=
EXTT7=
EXTT8=
EXTT9=
EXTT10=
EXTT11=
EXTT12=
EXTT13=
PLAYORDER=
